<svg xmlns="http://www.w3.org/2000/svg" viewBox="0 0 64 64"><path d="M 15 12 C 12.243 12 10 14.243 10 17 L 10 24 L 10 47 C 10 49.757 12.243 52 15 52 L 49 52 C 51.757 52 54 49.757 54 47 L 54 24 L 54 17 C 54 14.243 51.757 12 49 12 L 15 12 z M 15 16 L 49 16 C 49.552 16 50 16.449 50 17 L 50 22 L 14 22 L 14 17 C 14 16.449 14.448 16 15 16 z M 39 18 C 38.448 18 38 18.448 38 19 C 38 19.552 38.448 20 39 20 C 39.552 20 40 19.552 40 19 C 40 18.448 39.552 18 39 18 z M 43 18 C 42.448 18 42 18.448 42 19 C 42 19.552 42.448 20 43 20 C 43.552 20 44 19.552 44 19 C 44 18.448 43.552 18 43 18 z M 47 18 C 46.448 18 46 18.448 46 19 C 46 19.552 46.448 20 47 20 C 47.552 20 48 19.552 48 19 C 48 18.448 47.552 18 47 18 z M 14 26 L 50 26 L 50 47 C 50 47.551 49.552 48 49 48 L 15 48 C 14.448 48 14 47.551 14 47 L 14 26 z M 24.386719 30.007812 C 23.747051 29.955752 23.093281 30.209922 22.660156 30.748047 C 21.970156 31.610047 22.108703 32.869547 22.970703 33.560547 L 26.638672 36.5 L 22.970703 39.439453 C 22.107703 40.130453 21.970156 41.389953 22.660156 42.251953 C 23.056156 42.744953 23.636656 43 24.222656 43 C 24.661656 43 25.103656 42.855547 25.472656 42.560547 L 31.085938 38.060547 C 31.559938 37.680547 31.835938 37.107 31.835938 36.5 C 31.835937 35.893 31.559938 35.319453 31.085938 34.939453 L 25.472656 30.439453 C 25.149781 30.180703 24.77052 30.039049 24.386719 30.007812 z M 34 39 C 32.896 39 32 39.896 32 41 C 32 42.104 32.896 43 34 43 L 40 43 C 41.104 43 42 42.104 42 41 C 42 39.896 41.104 39 40 39 L 34 39 z"/></svg>