<svg xmlns="http://www.w3.org/2000/svg" viewBox="0 0 48 48"><path d="M 23.976562 3.9785156 A 1.50015 1.50015 0 0 0 22.5 5.5 L 22.5 7 L 15.5 7 C 13.032499 7 11 9.0324991 11 11.5 L 11 20.5 C 11 22.967501 13.032499 25 15.5 25 L 32.5 25 C 34.967501 25 37 22.967501 37 20.5 L 37 11.5 C 37 9.0324991 34.967501 7 32.5 7 L 25.5 7 L 25.5 5.5 A 1.50015 1.50015 0 0 0 23.976562 3.9785156 z M 15.5 10 L 32.5 10 C 33.346499 10 34 10.653501 34 11.5 L 34 20.5 C 34 21.346499 33.346499 22 32.5 22 L 15.5 22 C 14.653501 22 14 21.346499 14 20.5 L 14 11.5 C 14 10.653501 14.653501 10 15.5 10 z M 19.5 13 A 2.5 2.5 0 0 0 19.5 18 A 2.5 2.5 0 0 0 19.5 13 z M 28.5 13 A 2.5 2.5 0 0 0 28.5 18 A 2.5 2.5 0 0 0 28.5 13 z M 12.5 28 C 10.032499 28 8 30.032499 8 32.5 L 8 33.263672 C 8 35.608763 8.9621801 37.861536 10.6875 39.46875 A 1.50015 1.50015 0 0 0 10.6875 39.470703 C 13.011489 41.634486 17.217112 44 24 44 C 30.782888 44 34.988347 41.633853 37.3125 39.46875 C 39.037543 37.861794 40 35.607598 40 33.261719 L 40 32.5 C 40 30.032499 37.967501 28 35.5 28 L 12.5 28 z M 12.5 31 L 35.5 31 C 36.346499 31 37 31.653501 37 32.5 L 37 33.261719 C 37 34.789839 36.378488 36.240394 35.269531 37.273438 C 33.443684 38.974335 30.101112 41 24 41 C 17.898888 41 14.55648 38.973607 12.730469 37.273438 C 11.622535 36.240721 11 34.790033 11 33.263672 L 11 32.5 C 11 31.653501 11.653501 31 12.5 31 z"/></svg>