<svg xmlns="http://www.w3.org/2000/svg" viewBox="0 0 64 64"><path d="M57,35.351c0-4.826-2.632-7.581-2.632-7.581c0.896-7.452-1.06-11.054-6.728-14.188C45.073,8.514,36.805,3.38,31.986,7.572	C26.895,3.6,19.792,7.954,17.915,11.927c-1.175,0.704-4.219,2.575-4.433,6.288C10.88,20.178,9.429,22.27,9.604,28.77	c-2.052,2.208-4.387,5.359-0.541,9.842c-0.973,3.725,0.921,7.267,3.566,9.614c0.874,3.293,4.884,6.681,8.248,6.938	c2.461,3.989,8.609,3.298,11.109,0.533c2.617,3.199,9.272,3.105,11.109-0.533c3.361-0.255,7.744-3.5,8.616-6.791	c1.471-2.841,4.174-6.042,3.199-9.761C54.91,38.612,57,38.189,57,35.351z M23.301,51.585c-3.323-0.509-7.131-1.652-7.43-5.28	c-2.385-1.459-2.459-2.917-2.823-5.115c1.222,0.689,2.525,1.517,4.986,1.746c2.048,4.444,6.475,4.447,9.646,4.819l0.468-2.133	c-2.214-0.213-5.706-1.28-5.983-3.55c1.898-0.164,2.954-1.839,2.954-1.839l-1.372-1.893c-3.361,3.267-7.532-0.185-11.113-1.601	c-2.668-2.957-0.208-5.195,0.352-5.75c1.853-0.24,2.944,2.484,2.944,2.484l2.217-0.692c-0.558-1.755-1.66-5.195-4.696-6.261	c0.03-2.568-0.013-5.19,2.845-6.342c0.128-2.817,2.309-5.046,3.715-4.849c4.136,1.477-0.173,8.306,4.594,11.212l1.633-1.924	c-3.456-3.5,2.517-5.975-3.467-12.448c0.822-1.594,4.861-2.877,7.213-1.127c0.569,3.588,0.455,8.332-0.574,10.847	c1.143,2.972,0.983,6.605,0.574,9.896c-2.003-1.129-6.233,1.518-7.065-0.818l-1.143,1.759c2.857,3.913,5.451,0.879,8.208,3.395	c0.719,3.492,0.951,6.736,0,9.375c0.626,2.458,0.569,4.801,0,6.668C25.643,56.336,23.301,51.585,23.301,51.585z M39.371,17.095	c0,0-0.763,4.948-5.384,4.194c-0.83-4.632,0-10.248,0-10.248c5.382-2.939,10.243,3.093,11.458,5.177	c3.733,1.693,5.5,4.99,5.005,10.621l-0.076-0.068c-4.382,5.145-7.846-4.71-13.224,2.766l1.527,1.214	c4.074-4.156,4.879,4.724,12.87,0.27c1.976,1.655,1.922,3.785-0.187,5.659c-1.725,0.167-4.536,0.706-6.596,2.384	c0,0-4.465-1.115-3.322-4.042l-1.646-0.644c-2.469,3.118-1.098,6.408,2.541,8.073c0,0-1.306,2.406-4.228,2.315l-0.303,2.464	c9.395,0.112,5.803-6.347,13.879-6.475c-0.426,2.367-3.059,4.229-3.665,6.07c-0.99,2.806-3.149,4.046-6.287,4.535	c-0.499,1.956-3.941,0.302-7.747,0.801c-0.165,0.022,0.511-3.065-0.232-7.066c0.572-2.401,0.588-5.036,0.145-8.114	c0.903-4.316,0.402-8.432,0.087-11.591c8.253-0.326,8.158-6.981,7.574-8.942"/></svg>