<svg clip-rule="evenodd" fill-rule="evenodd" stroke-linejoin="round" stroke-miterlimit="2" viewBox="0 0 510 510" xmlns="http://www.w3.org/2000/svg"><path d="m285.163 161.06c-7.065-4.813-14.426-9.405-22.083-13.777v-68.91h-15.645c-4.101 0-6.37-4.697-3.862-7.882l37.741-47.893c1.95-2.508 5.693-2.508 7.643 0l37.741 47.893c2.508 3.185.239 7.882-3.862 7.882h-15.645v68.933c-7.637 4.365-14.979 8.95-22.028 13.754zm-49.13 41.985c-19.642-11.746-41.77-21.647-66.371-29.72l-11.094-3.126-4.368 15.504c-1.145 4.063-6.434 5-8.889 1.626l-36.92-50.771c-1.94-2.633-.895-6.341 2.135-7.574l57.995-24.025c3.856-1.596 7.877 1.964 6.732 6.027l-4.368 15.504 9.508 2.679.077-.241c34.39 10.982 64.641 25.055 90.795 42.179-12.831 9.838-24.572 20.487-35.232 31.938zm95.229 20.864c24.539 29.217 42.237 63.518 53.183 102.819l-43.706 12.934c-9.166-33.094-24.112-61.87-44.792-86.38 10.449-10.775 22.225-20.56 35.315-29.373zm-88.138 78.495c-11.529-4.106-21.781-7.969-30.019-10.64-4.767-1.548-9.46-2.39-14.091-2.639 32.787-76.297 96.101-129.959 190.787-160.197l.077.241 9.508-2.679-4.368-15.504c-1.145-4.063 2.876-7.623 6.732-6.027l57.995 24.025c3.03 1.233 4.075 4.941 2.135 7.574l-36.92 50.771c-2.455 3.374-7.744 2.437-8.889-1.626l-4.368-15.504-11.095 3.126c-76.606 25.137-129.235 68.015-157.484 129.079zm-98.001 130.524-46.589-82.321 60.246-34.881c16.091-9.305 32.328-16.385 50.002-10.646l.002.001c21.651 7.02 56.977 22.022 93.047 28.607 10.069 3.447 16.47 13.521 13.697 23.831l-.001.003c-2.714 10.111-11.251 15.198-23.083 13.836-19.964-4.116-38.491-10.171-59.049-15.696-3.198-.859-6.492 1.039-7.351 4.237-.86 3.198 1.039 6.493 4.237 7.352 20.882 5.612 39.698 11.746 59.989 15.911l11.44 1.867c.006.001.013.002.02.003 15.812 2.517 30.325.307 44.169-7.76l74.834-43.584c19.197-11.184 33.365-14.281 43.383-12.182 11.933 2.5 16.579 13.069 15.783 22.716-.522 6.329-3.279 12.425-8.271 15.5l-148.283 91.806-.006.004c-13.58 8.381-28.464 10.292-43.875 6.181l-118.67-31.804c-1.537-.412-3.175-.197-4.553.599zm-70.118-92.22 66.748 117.943c3.217 5.721 1.187 13.023-4.507 16.239l-22.698 12.865c-5.721 3.216-13.023 1.186-16.239-4.508l-66.749-117.944c-3.242-5.72-1.212-13.022 4.482-16.239l22.724-12.864c5.694-3.216 12.996-1.186 16.239 4.508zm-15.508 16.381c-5.151.736-8.708 5.519-7.972 10.671.766 5.151 5.55 8.739 10.701 7.972 5.152-.735 8.709-5.55 7.973-10.701-.767-5.152-5.55-8.709-10.702-7.942z"/></svg>