<?xml version="1.0"?><svg xmlns="http://www.w3.org/2000/svg" viewBox="0 0 80 80">    <path d="M 19 9 C 16.802666 9 15 10.802666 15 13 L 15 22 C 15 23.210938 15.576246 24.264444 16.435547 25 C 15.576246 25.735556 15 26.789062 15 28 L 15 37 C 15 38.210938 15.576246 39.264444 16.435547 40 C 15.576246 40.735556 15 41.789062 15 43 L 15 52 C 15 53.210938 15.576246 54.264444 16.435547 55 C 15.576246 55.735556 15 56.789062 15 58 L 15 67 C 15 69.197334 16.802666 71 19 71 L 61 71 C 63.197334 71 65 69.197334 65 67 L 65 58 C 65 56.789062 64.423754 55.735556 63.564453 55 C 64.423754 54.264444 65 53.210938 65 52 L 65 43 C 65 41.789062 64.423754 40.735556 63.564453 40 C 64.423754 39.264444 65 38.210938 65 37 L 65 28 C 65 26.789062 64.423754 25.735556 63.564453 25 C 64.423754 24.264444 65 23.210938 65 22 L 65 13 C 65 10.802666 63.197334 9 61 9 L 19 9 z M 19 11 L 61 11 C 62.116666 11 63 11.883334 63 13 L 63 22 C 63 23.116666 62.116666 24 61 24 L 61 26 C 62.116666 26 63 26.883334 63 28 L 63 37 C 63 38.116666 62.116666 39 61 39 L 61 41 C 62.116666 41 63 41.883334 63 43 L 63 52 C 63 53.116666 62.116666 54 61 54 L 61 56 C 62.116666 56 63 56.883334 63 58 L 63 67 C 63 68.116666 62.116666 69 61 69 L 19 69 C 17.883334 69 17 68.116666 17 67 L 17 58 C 17 56.883334 17.883334 56 19 56 L 19 54 C 17.883334 54 17 53.116666 17 52 L 17 43 C 17 41.883334 17.883334 41 19 41 L 19 39 C 17.883334 39 17 38.116666 17 37 L 17 28 C 17 26.883334 17.883334 26 19 26 L 19 24 C 17.883334 24 17 23.116666 17 22 L 17 13 C 17 11.883334 17.883334 11 19 11 z M 22 24 A 1 1 0 0 0 21 25 A 1 1 0 0 0 22 26 A 1 1 0 0 0 23 25 A 1 1 0 0 0 22 24 z M 26 24 A 1 1 0 0 0 25 25 A 1 1 0 0 0 26 26 A 1 1 0 0 0 27 25 A 1 1 0 0 0 26 24 z M 30 24 A 1 1 0 0 0 29 25 A 1 1 0 0 0 30 26 A 1 1 0 0 0 31 25 A 1 1 0 0 0 30 24 z M 34 24 A 1 1 0 0 0 33 25 A 1 1 0 0 0 34 26 A 1 1 0 0 0 35 25 A 1 1 0 0 0 34 24 z M 38 24 A 1 1 0 0 0 37 25 A 1 1 0 0 0 38 26 A 1 1 0 0 0 39 25 A 1 1 0 0 0 38 24 z M 42 24 A 1 1 0 0 0 41 25 A 1 1 0 0 0 42 26 A 1 1 0 0 0 43 25 A 1 1 0 0 0 42 24 z M 46 24 A 1 1 0 0 0 45 25 A 1 1 0 0 0 46 26 A 1 1 0 0 0 47 25 A 1 1 0 0 0 46 24 z M 50 24 A 1 1 0 0 0 49 25 A 1 1 0 0 0 50 26 A 1 1 0 0 0 51 25 A 1 1 0 0 0 50 24 z M 54 24 A 1 1 0 0 0 53 25 A 1 1 0 0 0 54 26 A 1 1 0 0 0 55 25 A 1 1 0 0 0 54 24 z M 58 24 A 1 1 0 0 0 57 25 A 1 1 0 0 0 58 26 A 1 1 0 0 0 59 25 A 1 1 0 0 0 58 24 z M 31.322266 36 C 29.313266 36 28 37.077469 28 38.730469 C 28 40.064469 28.960812 40.899031 30.507812 41.207031 L 31.615234 41.439453 C 32.605234 41.641453 32.986328 41.919969 32.986328 42.417969 C 32.986328 43.009969 32.406359 43.417969 31.568359 43.417969 C 30.642359 43.417969 30.004313 42.646 29.945312 42 L 28 42 C 28.047 43.623 29.000609 45 31.474609 45 C 33.665609 45 34.994141 43.927969 34.994141 42.167969 C 34.994141 40.822969 34.250219 40.064563 32.574219 39.726562 L 31.503906 39.513672 C 30.584906 39.323672 30.021484 39.040828 30.021484 38.548828 C 30.021484 37.955828 30.548703 37.576172 31.345703 37.576172 C 32.136703 37.576172 32.716391 38.002859 32.775391 38.630859 L 34.662109 38.630859 C 34.621109 37.071859 33.261266 36 31.322266 36 z M 40.994141 36 C 38.559141 36 36.996094 37.719 36.996094 40.5 C 36.996094 43.298 38.548141 45.005859 40.994141 45.005859 C 41.509141 45.005859 41.984062 44.929109 42.414062 44.787109 L 43.146484 46 L 44.986328 46 L 43.763672 43.943359 C 44.550672 43.190359 44.986328 41.994 44.986328 40.5 C 44.986328 37.72 43.429141 36 40.994141 36 z M 46.986328 36 L 46.986328 45 L 52.986328 45 L 52.986328 43 L 48.986328 43 L 48.986328 36 L 46.986328 36 z M 40.994141 37.724609 C 42.195141 37.724609 42.986328 38.802047 42.986328 40.498047 C 42.985328 41.198047 42.833641 41.774016 42.556641 42.166016 L 42.435547 42 L 40.71875 42 L 41.486328 43.214844 C 41.327328 43.262844 41.17 43.279297 41 43.279297 C 39.788 43.279297 38.986328 42.206047 38.986328 40.498047 C 38.986328 38.797047 39.788141 37.724609 40.994141 37.724609 z M 22 39 A 1 1 0 0 0 21 40 A 1 1 0 0 0 22 41 A 1 1 0 0 0 23 40 A 1 1 0 0 0 22 39 z M 58 39 A 1 1 0 0 0 57 40 A 1 1 0 0 0 58 41 A 1 1 0 0 0 59 40 A 1 1 0 0 0 58 39 z M 22 54 A 1 1 0 0 0 21 55 A 1 1 0 0 0 22 56 A 1 1 0 0 0 23 55 A 1 1 0 0 0 22 54 z M 26 54 A 1 1 0 0 0 25 55 A 1 1 0 0 0 26 56 A 1 1 0 0 0 27 55 A 1 1 0 0 0 26 54 z M 30 54 A 1 1 0 0 0 29 55 A 1 1 0 0 0 30 56 A 1 1 0 0 0 31 55 A 1 1 0 0 0 30 54 z M 34 54 A 1 1 0 0 0 33 55 A 1 1 0 0 0 34 56 A 1 1 0 0 0 35 55 A 1 1 0 0 0 34 54 z M 38 54 A 1 1 0 0 0 37 55 A 1 1 0 0 0 38 56 A 1 1 0 0 0 39 55 A 1 1 0 0 0 38 54 z M 42 54 A 1 1 0 0 0 41 55 A 1 1 0 0 0 42 56 A 1 1 0 0 0 43 55 A 1 1 0 0 0 42 54 z M 46 54 A 1 1 0 0 0 45 55 A 1 1 0 0 0 46 56 A 1 1 0 0 0 47 55 A 1 1 0 0 0 46 54 z M 50 54 A 1 1 0 0 0 49 55 A 1 1 0 0 0 50 56 A 1 1 0 0 0 51 55 A 1 1 0 0 0 50 54 z M 54 54 A 1 1 0 0 0 53 55 A 1 1 0 0 0 54 56 A 1 1 0 0 0 55 55 A 1 1 0 0 0 54 54 z M 58 54 A 1 1 0 0 0 57 55 A 1 1 0 0 0 58 56 A 1 1 0 0 0 59 55 A 1 1 0 0 0 58 54 z"/></svg>