<svg id="Layer_3" height="512" viewBox="0 0 100 100" width="512" xmlns="http://www.w3.org/2000/svg" data-name="Layer 3"><path d="m95 42.46a16.14 16.14 0 0 0 -13.79-16 19.66 19.66 0 0 0 -23.87-12.46 19.62 19.62 0 0 0 -33.46 4.72h-.85a16.2 16.2 0 0 0 -5.13 31.59 19.62 19.62 0 0 0 27.1 14.81 19.62 19.62 0 0 0 30.21-6.85 16.06 16.06 0 0 0 3.59.4 16.23 16.23 0 0 0 16.2-16.21zm-20.18 13.13a1.24 1.24 0 0 0 -1.51.73 17.13 17.13 0 0 1 -27.31 6.4 1.26 1.26 0 0 0 -.84-.32 1.24 1.24 0 0 0 -.53.12 16.94 16.94 0 0 1 -7.37 1.68 17.16 17.16 0 0 1 -17-15 1.23 1.23 0 0 0 -.91-1.05 13.71 13.71 0 0 1 3.65-26.92 14 14 0 0 1 1.53.09 1.25 1.25 0 0 0 1.32-.81 17.12 17.12 0 0 1 30-4.28 1.25 1.25 0 0 0 1.4.45 17.15 17.15 0 0 1 21.8 11.26 1.25 1.25 0 0 0 1.08.87 13.71 13.71 0 1 1 -5.31 26.78zm-44.09 19.41c0-3.44-3.54-6.23-7.88-6.23s-7.85 2.74-7.85 6.23 3.54 6.22 7.88 6.22 7.85-2.84 7.85-6.22zm-13.26 0c0-2 2.46-3.73 5.38-3.73s5.38 1.71 5.38 3.73-2.47 3.72-5.38 3.72-5.38-1.72-5.38-3.72zm-6.22 8.42c-3.44 0-6.23 2.24-6.23 5s2.79 5 6.23 5 6.22-2.23 6.22-5-2.79-5.05-6.22-5.05zm0 7.47c-2 0-3.73-1.14-3.73-2.48s1.71-2.49 3.73-2.49 3.75 1.08 3.75 2.44-1.73 2.48-3.75 2.48z"/></svg>